<mxfile host="app.diagrams.net" modified="2023-10-16T06:30:57.329Z" agent="Mozilla/5.0 (Windows NT 10.0; Win64; x64) AppleWebKit/537.36 (KHTML, like Gecko) Chrome/118.0.0.0 Safari/537.36 Edg/118.0.2088.46" etag="L9-1r3tepzZttWtTiH8X" version="22.0.4" type="github" pages="2">
  <diagram name="第 1 页" id="MhoH8U3tyxvZcN3tAj8D">
    <mxGraphModel dx="4680" dy="2256" grid="0" gridSize="10" guides="1" tooltips="1" connect="1" arrows="1" fold="1" page="0" pageScale="1" pageWidth="827" pageHeight="1169" math="0" shadow="0">
      <root>
        <mxCell id="0" />
        <mxCell id="1" parent="0" />
        <mxCell id="xTHvPwRFMxjuUwYBFSz3-31" value="" style="rounded=0;whiteSpace=wrap;html=1;fontSize=16;fillColor=#dae8fc;strokeColor=#6c8ebf;" vertex="1" parent="1">
          <mxGeometry x="601" y="50" width="545" height="171" as="geometry" />
        </mxCell>
        <mxCell id="pBCOsRaj-h_CKX6DQHzy-14" value="" style="rounded=0;whiteSpace=wrap;html=1;fontSize=16;fillColor=#dae8fc;strokeColor=#6c8ebf;" vertex="1" parent="1">
          <mxGeometry x="-484" y="-147.5" width="689" height="171" as="geometry" />
        </mxCell>
        <mxCell id="pBCOsRaj-h_CKX6DQHzy-21" style="edgeStyle=none;curved=1;rounded=0;orthogonalLoop=1;jettySize=auto;html=1;fontSize=12;startSize=8;endSize=8;" edge="1" parent="1" source="pBCOsRaj-h_CKX6DQHzy-2" target="pBCOsRaj-h_CKX6DQHzy-5">
          <mxGeometry relative="1" as="geometry" />
        </mxCell>
        <mxCell id="pBCOsRaj-h_CKX6DQHzy-2" value="" style="image;aspect=fixed;html=1;points=[];align=center;fontSize=12;image=img/lib/azure2/databases/Data_Factory.svg;" vertex="1" parent="1">
          <mxGeometry x="-181" y="-98" width="68" height="68" as="geometry" />
        </mxCell>
        <mxCell id="pBCOsRaj-h_CKX6DQHzy-5" value="" style="image;aspect=fixed;html=1;points=[];align=center;fontSize=12;image=img/lib/azure2/databases/SQL_Database.svg;" vertex="1" parent="1">
          <mxGeometry x="53" y="-94" width="48" height="64" as="geometry" />
        </mxCell>
        <mxCell id="pBCOsRaj-h_CKX6DQHzy-20" style="edgeStyle=none;curved=1;rounded=0;orthogonalLoop=1;jettySize=auto;html=1;fontSize=12;startSize=8;endSize=8;" edge="1" parent="1" source="pBCOsRaj-h_CKX6DQHzy-7" target="pBCOsRaj-h_CKX6DQHzy-2">
          <mxGeometry relative="1" as="geometry" />
        </mxCell>
        <mxCell id="pBCOsRaj-h_CKX6DQHzy-7" value="Data Source" style="rounded=1;whiteSpace=wrap;html=1;fontSize=16;" vertex="1" parent="1">
          <mxGeometry x="-433" y="-94" width="120" height="60" as="geometry" />
        </mxCell>
        <mxCell id="pBCOsRaj-h_CKX6DQHzy-12" value="Data Factory" style="text;html=1;align=center;verticalAlign=middle;resizable=0;points=[];autosize=1;strokeColor=none;fillColor=none;fontSize=16;" vertex="1" parent="1">
          <mxGeometry x="-208" y="-34" width="110" height="31" as="geometry" />
        </mxCell>
        <mxCell id="pBCOsRaj-h_CKX6DQHzy-13" value="Data Warehouse" style="text;html=1;align=center;verticalAlign=middle;resizable=0;points=[];autosize=1;strokeColor=none;fillColor=none;fontSize=16;" vertex="1" parent="1">
          <mxGeometry x="13" y="-28" width="137" height="31" as="geometry" />
        </mxCell>
        <mxCell id="pBCOsRaj-h_CKX6DQHzy-16" value="上海亚大" style="text;html=1;align=center;verticalAlign=middle;resizable=0;points=[];autosize=1;strokeColor=none;fillColor=none;fontSize=16;" vertex="1" parent="1">
          <mxGeometry x="-482" y="-147" width="82" height="31" as="geometry" />
        </mxCell>
        <mxCell id="pBCOsRaj-h_CKX6DQHzy-22" value="" style="rounded=0;whiteSpace=wrap;html=1;fontSize=16;fillColor=#dae8fc;strokeColor=#6c8ebf;" vertex="1" parent="1">
          <mxGeometry x="-482" y="-352" width="689" height="171" as="geometry" />
        </mxCell>
        <mxCell id="pBCOsRaj-h_CKX6DQHzy-23" style="edgeStyle=none;curved=1;rounded=0;orthogonalLoop=1;jettySize=auto;html=1;fontSize=12;startSize=8;endSize=8;" edge="1" parent="1" source="pBCOsRaj-h_CKX6DQHzy-24" target="pBCOsRaj-h_CKX6DQHzy-25">
          <mxGeometry relative="1" as="geometry" />
        </mxCell>
        <mxCell id="pBCOsRaj-h_CKX6DQHzy-24" value="" style="image;aspect=fixed;html=1;points=[];align=center;fontSize=12;image=img/lib/azure2/databases/Data_Factory.svg;" vertex="1" parent="1">
          <mxGeometry x="-179" y="-302.5" width="68" height="68" as="geometry" />
        </mxCell>
        <mxCell id="pBCOsRaj-h_CKX6DQHzy-25" value="" style="image;aspect=fixed;html=1;points=[];align=center;fontSize=12;image=img/lib/azure2/databases/SQL_Database.svg;" vertex="1" parent="1">
          <mxGeometry x="55" y="-298.5" width="48" height="64" as="geometry" />
        </mxCell>
        <mxCell id="pBCOsRaj-h_CKX6DQHzy-26" style="edgeStyle=none;curved=1;rounded=0;orthogonalLoop=1;jettySize=auto;html=1;fontSize=12;startSize=8;endSize=8;" edge="1" parent="1" source="pBCOsRaj-h_CKX6DQHzy-27" target="pBCOsRaj-h_CKX6DQHzy-24">
          <mxGeometry relative="1" as="geometry" />
        </mxCell>
        <mxCell id="pBCOsRaj-h_CKX6DQHzy-27" value="Data Source" style="rounded=1;whiteSpace=wrap;html=1;fontSize=16;" vertex="1" parent="1">
          <mxGeometry x="-431" y="-298.5" width="120" height="60" as="geometry" />
        </mxCell>
        <mxCell id="pBCOsRaj-h_CKX6DQHzy-28" value="Data Factory" style="text;html=1;align=center;verticalAlign=middle;resizable=0;points=[];autosize=1;strokeColor=none;fillColor=none;fontSize=16;" vertex="1" parent="1">
          <mxGeometry x="-206" y="-238.5" width="110" height="31" as="geometry" />
        </mxCell>
        <mxCell id="pBCOsRaj-h_CKX6DQHzy-29" value="Data Warehouse" style="text;html=1;align=center;verticalAlign=middle;resizable=0;points=[];autosize=1;strokeColor=none;fillColor=none;fontSize=16;" vertex="1" parent="1">
          <mxGeometry x="15" y="-232.5" width="137" height="31" as="geometry" />
        </mxCell>
        <mxCell id="pBCOsRaj-h_CKX6DQHzy-30" value="河北亚大" style="text;html=1;align=center;verticalAlign=middle;resizable=0;points=[];autosize=1;strokeColor=none;fillColor=none;fontSize=16;" vertex="1" parent="1">
          <mxGeometry x="-480" y="-351.5" width="82" height="31" as="geometry" />
        </mxCell>
        <mxCell id="xTHvPwRFMxjuUwYBFSz3-1" value="" style="rounded=0;whiteSpace=wrap;html=1;fontSize=16;fillColor=#dae8fc;strokeColor=#6c8ebf;" vertex="1" parent="1">
          <mxGeometry x="-482" y="61" width="689" height="171" as="geometry" />
        </mxCell>
        <mxCell id="xTHvPwRFMxjuUwYBFSz3-2" style="edgeStyle=none;curved=1;rounded=0;orthogonalLoop=1;jettySize=auto;html=1;fontSize=12;startSize=8;endSize=8;" edge="1" parent="1" source="xTHvPwRFMxjuUwYBFSz3-3" target="xTHvPwRFMxjuUwYBFSz3-4">
          <mxGeometry relative="1" as="geometry" />
        </mxCell>
        <mxCell id="xTHvPwRFMxjuUwYBFSz3-3" value="" style="image;aspect=fixed;html=1;points=[];align=center;fontSize=12;image=img/lib/azure2/databases/Data_Factory.svg;" vertex="1" parent="1">
          <mxGeometry x="-179" y="110.5" width="68" height="68" as="geometry" />
        </mxCell>
        <mxCell id="xTHvPwRFMxjuUwYBFSz3-4" value="" style="image;aspect=fixed;html=1;points=[];align=center;fontSize=12;image=img/lib/azure2/databases/SQL_Database.svg;" vertex="1" parent="1">
          <mxGeometry x="55" y="114.5" width="48" height="64" as="geometry" />
        </mxCell>
        <mxCell id="xTHvPwRFMxjuUwYBFSz3-5" style="edgeStyle=none;curved=1;rounded=0;orthogonalLoop=1;jettySize=auto;html=1;fontSize=12;startSize=8;endSize=8;" edge="1" parent="1" source="xTHvPwRFMxjuUwYBFSz3-6" target="xTHvPwRFMxjuUwYBFSz3-3">
          <mxGeometry relative="1" as="geometry" />
        </mxCell>
        <mxCell id="xTHvPwRFMxjuUwYBFSz3-6" value="Data Source" style="rounded=1;whiteSpace=wrap;html=1;fontSize=16;" vertex="1" parent="1">
          <mxGeometry x="-431" y="114.5" width="120" height="60" as="geometry" />
        </mxCell>
        <mxCell id="xTHvPwRFMxjuUwYBFSz3-7" value="Data Factory" style="text;html=1;align=center;verticalAlign=middle;resizable=0;points=[];autosize=1;strokeColor=none;fillColor=none;fontSize=16;" vertex="1" parent="1">
          <mxGeometry x="-206" y="174.5" width="110" height="31" as="geometry" />
        </mxCell>
        <mxCell id="xTHvPwRFMxjuUwYBFSz3-8" value="Data Warehouse" style="text;html=1;align=center;verticalAlign=middle;resizable=0;points=[];autosize=1;strokeColor=none;fillColor=none;fontSize=16;" vertex="1" parent="1">
          <mxGeometry x="15" y="180.5" width="137" height="31" as="geometry" />
        </mxCell>
        <mxCell id="xTHvPwRFMxjuUwYBFSz3-9" value="长春亚大&amp;nbsp;" style="text;html=1;align=center;verticalAlign=middle;resizable=0;points=[];autosize=1;strokeColor=none;fillColor=none;fontSize=16;" vertex="1" parent="1">
          <mxGeometry x="-482" y="65" width="86" height="31" as="geometry" />
        </mxCell>
        <mxCell id="xTHvPwRFMxjuUwYBFSz3-10" value="" style="rounded=0;whiteSpace=wrap;html=1;fontSize=16;fillColor=#dae8fc;strokeColor=#6c8ebf;" vertex="1" parent="1">
          <mxGeometry x="-484" y="267" width="689" height="171" as="geometry" />
        </mxCell>
        <mxCell id="xTHvPwRFMxjuUwYBFSz3-11" style="edgeStyle=none;curved=1;rounded=0;orthogonalLoop=1;jettySize=auto;html=1;fontSize=12;startSize=8;endSize=8;" edge="1" parent="1" source="xTHvPwRFMxjuUwYBFSz3-12" target="xTHvPwRFMxjuUwYBFSz3-13">
          <mxGeometry relative="1" as="geometry" />
        </mxCell>
        <mxCell id="xTHvPwRFMxjuUwYBFSz3-12" value="" style="image;aspect=fixed;html=1;points=[];align=center;fontSize=12;image=img/lib/azure2/databases/Data_Factory.svg;" vertex="1" parent="1">
          <mxGeometry x="-181" y="316.5" width="68" height="68" as="geometry" />
        </mxCell>
        <mxCell id="xTHvPwRFMxjuUwYBFSz3-13" value="" style="image;aspect=fixed;html=1;points=[];align=center;fontSize=12;image=img/lib/azure2/databases/SQL_Database.svg;" vertex="1" parent="1">
          <mxGeometry x="53" y="320.5" width="48" height="64" as="geometry" />
        </mxCell>
        <mxCell id="xTHvPwRFMxjuUwYBFSz3-14" style="edgeStyle=none;curved=1;rounded=0;orthogonalLoop=1;jettySize=auto;html=1;fontSize=12;startSize=8;endSize=8;" edge="1" parent="1" source="xTHvPwRFMxjuUwYBFSz3-15" target="xTHvPwRFMxjuUwYBFSz3-12">
          <mxGeometry relative="1" as="geometry" />
        </mxCell>
        <mxCell id="xTHvPwRFMxjuUwYBFSz3-15" value="Data Source" style="rounded=1;whiteSpace=wrap;html=1;fontSize=16;" vertex="1" parent="1">
          <mxGeometry x="-433" y="320.5" width="120" height="60" as="geometry" />
        </mxCell>
        <mxCell id="xTHvPwRFMxjuUwYBFSz3-16" value="Data Factory" style="text;html=1;align=center;verticalAlign=middle;resizable=0;points=[];autosize=1;strokeColor=none;fillColor=none;fontSize=16;" vertex="1" parent="1">
          <mxGeometry x="-208" y="380.5" width="110" height="31" as="geometry" />
        </mxCell>
        <mxCell id="xTHvPwRFMxjuUwYBFSz3-17" value="Data Warehouse" style="text;html=1;align=center;verticalAlign=middle;resizable=0;points=[];autosize=1;strokeColor=none;fillColor=none;fontSize=16;" vertex="1" parent="1">
          <mxGeometry x="13" y="386.5" width="137" height="31" as="geometry" />
        </mxCell>
        <mxCell id="xTHvPwRFMxjuUwYBFSz3-18" value="墨西哥亚大" style="text;html=1;align=center;verticalAlign=middle;resizable=0;points=[];autosize=1;strokeColor=none;fillColor=none;fontSize=16;" vertex="1" parent="1">
          <mxGeometry x="-490" y="271" width="98" height="31" as="geometry" />
        </mxCell>
        <mxCell id="xTHvPwRFMxjuUwYBFSz3-19" value="" style="rounded=0;whiteSpace=wrap;html=1;fontSize=16;fillColor=#dae8fc;strokeColor=#6c8ebf;" vertex="1" parent="1">
          <mxGeometry x="-480" y="491" width="689" height="171" as="geometry" />
        </mxCell>
        <mxCell id="xTHvPwRFMxjuUwYBFSz3-20" style="edgeStyle=none;curved=1;rounded=0;orthogonalLoop=1;jettySize=auto;html=1;fontSize=12;startSize=8;endSize=8;" edge="1" parent="1" source="xTHvPwRFMxjuUwYBFSz3-21" target="xTHvPwRFMxjuUwYBFSz3-22">
          <mxGeometry relative="1" as="geometry" />
        </mxCell>
        <mxCell id="xTHvPwRFMxjuUwYBFSz3-21" value="" style="image;aspect=fixed;html=1;points=[];align=center;fontSize=12;image=img/lib/azure2/databases/Data_Factory.svg;" vertex="1" parent="1">
          <mxGeometry x="-177" y="540.5" width="68" height="68" as="geometry" />
        </mxCell>
        <mxCell id="xTHvPwRFMxjuUwYBFSz3-22" value="" style="image;aspect=fixed;html=1;points=[];align=center;fontSize=12;image=img/lib/azure2/databases/SQL_Database.svg;" vertex="1" parent="1">
          <mxGeometry x="57" y="544.5" width="48" height="64" as="geometry" />
        </mxCell>
        <mxCell id="xTHvPwRFMxjuUwYBFSz3-23" style="edgeStyle=none;curved=1;rounded=0;orthogonalLoop=1;jettySize=auto;html=1;fontSize=12;startSize=8;endSize=8;" edge="1" parent="1" source="xTHvPwRFMxjuUwYBFSz3-24" target="xTHvPwRFMxjuUwYBFSz3-21">
          <mxGeometry relative="1" as="geometry" />
        </mxCell>
        <mxCell id="xTHvPwRFMxjuUwYBFSz3-24" value="Data Source" style="rounded=1;whiteSpace=wrap;html=1;fontSize=16;" vertex="1" parent="1">
          <mxGeometry x="-429" y="544.5" width="120" height="60" as="geometry" />
        </mxCell>
        <mxCell id="xTHvPwRFMxjuUwYBFSz3-25" value="Data Factory" style="text;html=1;align=center;verticalAlign=middle;resizable=0;points=[];autosize=1;strokeColor=none;fillColor=none;fontSize=16;" vertex="1" parent="1">
          <mxGeometry x="-204" y="604.5" width="110" height="31" as="geometry" />
        </mxCell>
        <mxCell id="xTHvPwRFMxjuUwYBFSz3-26" value="Data Warehouse" style="text;html=1;align=center;verticalAlign=middle;resizable=0;points=[];autosize=1;strokeColor=none;fillColor=none;fontSize=16;" vertex="1" parent="1">
          <mxGeometry x="17" y="610.5" width="137" height="31" as="geometry" />
        </mxCell>
        <mxCell id="xTHvPwRFMxjuUwYBFSz3-27" value="廊坊舒畅" style="text;html=1;align=center;verticalAlign=middle;resizable=0;points=[];autosize=1;strokeColor=none;fillColor=none;fontSize=16;" vertex="1" parent="1">
          <mxGeometry x="-478" y="495" width="82" height="31" as="geometry" />
        </mxCell>
        <mxCell id="xTHvPwRFMxjuUwYBFSz3-35" style="edgeStyle=none;curved=1;rounded=0;orthogonalLoop=1;jettySize=auto;html=1;fontSize=12;startSize=8;endSize=8;" edge="1" parent="1" source="xTHvPwRFMxjuUwYBFSz3-28" target="xTHvPwRFMxjuUwYBFSz3-29">
          <mxGeometry relative="1" as="geometry" />
        </mxCell>
        <mxCell id="xTHvPwRFMxjuUwYBFSz3-28" value="" style="image;aspect=fixed;html=1;points=[];align=center;fontSize=12;image=img/lib/azure2/analytics/Azure_Databricks.svg;" vertex="1" parent="1">
          <mxGeometry x="869" y="109" width="62.8" height="68" as="geometry" />
        </mxCell>
        <mxCell id="xTHvPwRFMxjuUwYBFSz3-29" value="" style="image;aspect=fixed;html=1;points=[];align=center;fontSize=12;image=img/lib/azure2/databases/Azure_Synapse_Analytics.svg;" vertex="1" parent="1">
          <mxGeometry x="1010" y="110" width="60" height="69" as="geometry" />
        </mxCell>
        <mxCell id="xTHvPwRFMxjuUwYBFSz3-41" value="亚大集团" style="text;html=1;align=center;verticalAlign=middle;resizable=0;points=[];autosize=1;strokeColor=none;fillColor=none;fontSize=16;" vertex="1" parent="1">
          <mxGeometry x="607" y="56" width="82" height="31" as="geometry" />
        </mxCell>
        <mxCell id="xTHvPwRFMxjuUwYBFSz3-43" value="Data Source" style="rounded=1;whiteSpace=wrap;html=1;fontSize=16;" vertex="1" parent="1">
          <mxGeometry x="638" y="119" width="120" height="60" as="geometry" />
        </mxCell>
        <mxCell id="xTHvPwRFMxjuUwYBFSz3-44" style="edgeStyle=none;curved=1;rounded=0;orthogonalLoop=1;jettySize=auto;html=1;fontSize=12;startSize=8;endSize=8;" edge="1" parent="1">
          <mxGeometry relative="1" as="geometry">
            <mxPoint x="769" y="144" as="sourcePoint" />
            <mxPoint x="858" y="143.67000000000002" as="targetPoint" />
          </mxGeometry>
        </mxCell>
        <mxCell id="xTHvPwRFMxjuUwYBFSz3-45" value="" style="rounded=0;whiteSpace=wrap;html=1;fontSize=16;fillColor=#dae8fc;strokeColor=#6c8ebf;" vertex="1" parent="1">
          <mxGeometry x="-1597" y="50" width="689" height="171" as="geometry" />
        </mxCell>
        <mxCell id="xTHvPwRFMxjuUwYBFSz3-46" style="edgeStyle=none;curved=1;rounded=0;orthogonalLoop=1;jettySize=auto;html=1;fontSize=12;startSize=8;endSize=8;" edge="1" parent="1" source="xTHvPwRFMxjuUwYBFSz3-47" target="xTHvPwRFMxjuUwYBFSz3-48">
          <mxGeometry relative="1" as="geometry" />
        </mxCell>
        <mxCell id="xTHvPwRFMxjuUwYBFSz3-47" value="" style="image;aspect=fixed;html=1;points=[];align=center;fontSize=12;image=img/lib/azure2/databases/Data_Factory.svg;" vertex="1" parent="1">
          <mxGeometry x="-1294" y="99.5" width="68" height="68" as="geometry" />
        </mxCell>
        <mxCell id="xTHvPwRFMxjuUwYBFSz3-48" value="" style="image;aspect=fixed;html=1;points=[];align=center;fontSize=12;image=img/lib/azure2/databases/SQL_Database.svg;" vertex="1" parent="1">
          <mxGeometry x="-1060" y="103.5" width="48" height="64" as="geometry" />
        </mxCell>
        <mxCell id="xTHvPwRFMxjuUwYBFSz3-49" style="edgeStyle=none;curved=1;rounded=0;orthogonalLoop=1;jettySize=auto;html=1;fontSize=12;startSize=8;endSize=8;" edge="1" parent="1" source="xTHvPwRFMxjuUwYBFSz3-50" target="xTHvPwRFMxjuUwYBFSz3-47">
          <mxGeometry relative="1" as="geometry" />
        </mxCell>
        <mxCell id="xTHvPwRFMxjuUwYBFSz3-50" value="Data Source" style="rounded=1;whiteSpace=wrap;html=1;fontSize=16;" vertex="1" parent="1">
          <mxGeometry x="-1546" y="103.5" width="120" height="60" as="geometry" />
        </mxCell>
        <mxCell id="xTHvPwRFMxjuUwYBFSz3-51" value="Data Factory" style="text;html=1;align=center;verticalAlign=middle;resizable=0;points=[];autosize=1;strokeColor=none;fillColor=none;fontSize=16;" vertex="1" parent="1">
          <mxGeometry x="-1321" y="163.5" width="110" height="31" as="geometry" />
        </mxCell>
        <mxCell id="xTHvPwRFMxjuUwYBFSz3-52" value="Data Warehouse" style="text;html=1;align=center;verticalAlign=middle;resizable=0;points=[];autosize=1;strokeColor=none;fillColor=none;fontSize=16;" vertex="1" parent="1">
          <mxGeometry x="-1100" y="169.5" width="137" height="31" as="geometry" />
        </mxCell>
        <mxCell id="xTHvPwRFMxjuUwYBFSz3-53" value="河北亚大" style="text;html=1;align=center;verticalAlign=middle;resizable=0;points=[];autosize=1;strokeColor=none;fillColor=none;fontSize=16;" vertex="1" parent="1">
          <mxGeometry x="-1595" y="50.5" width="82" height="31" as="geometry" />
        </mxCell>
        <mxCell id="xTHvPwRFMxjuUwYBFSz3-54" value="" style="shape=flexArrow;endArrow=classic;html=1;rounded=0;fontSize=12;startSize=8;endSize=8;curved=1;fillColor=#fff2cc;strokeColor=#d6b656;" edge="1" parent="1">
          <mxGeometry width="50" height="50" relative="1" as="geometry">
            <mxPoint x="-789" y="146" as="sourcePoint" />
            <mxPoint x="-652" y="146" as="targetPoint" />
          </mxGeometry>
        </mxCell>
        <mxCell id="xTHvPwRFMxjuUwYBFSz3-62" value="" style="shape=flexArrow;endArrow=classic;html=1;rounded=0;fontSize=12;startSize=8;endSize=8;curved=1;fillColor=#fff2cc;strokeColor=#d6b656;" edge="1" parent="1">
          <mxGeometry width="50" height="50" relative="1" as="geometry">
            <mxPoint x="312" y="123" as="sourcePoint" />
            <mxPoint x="449" y="123" as="targetPoint" />
          </mxGeometry>
        </mxCell>
      </root>
    </mxGraphModel>
  </diagram>
  <diagram id="jrHRcvDyhogu5Kz95-4c" name="第 2 页">
    <mxGraphModel dx="2520" dy="1518" grid="0" gridSize="10" guides="1" tooltips="1" connect="1" arrows="1" fold="1" page="0" pageScale="1" pageWidth="827" pageHeight="1169" math="0" shadow="0">
      <root>
        <mxCell id="0" />
        <mxCell id="1" parent="0" />
      </root>
    </mxGraphModel>
  </diagram>
</mxfile>
